<svg xmlns="http://www.w3.org/2000/svg" version="1.1" xmlns:xlink="http://www.w3.org/1999/xlink" xmlns:svgjs="http://svgjs.dev/svgjs" width="1440" height="560" preserveAspectRatio="none" viewBox="0 0 1440 560"><g mask="url(&quot;#SvgjsMask1962&quot;)" fill="none"><g mask="url(&quot;#SvgjsMask1964&quot;)"><path d="M57 247L95 285L133 285M19 285L57 285M-19 285L19 285L57 247L95 247" stroke="url(&quot;#SvgjsLinearGradient1963&quot;)" stroke-width="6.33"></path><path d="M85.5 247 a9.5 9.5 0 1 0 19 0 a9.5 9.5 0 1 0 -19 0zM123.5 285 a9.5 9.5 0 1 0 19 0 a9.5 9.5 0 1 0 -19 0zM47.5 285 a9.5 9.5 0 1 0 19 0 a9.5 9.5 0 1 0 -19 0z" fill="url(&quot;#SvgjsLinearGradient1963&quot;)"></path><path d="M-19 247L19 247" stroke="url(&quot;#SvgjsLinearGradient1963&quot;)" stroke-width="6.33"></path><path d="M9.5 247 a9.5 9.5 0 1 0 19 0 a9.5 9.5 0 1 0 -19 0z" fill="url(&quot;#SvgjsLinearGradient1963&quot;)"></path><path d="M57 323L95 361L133 361M-19 323L19 323L57 323L95 323" stroke="url(&quot;#SvgjsLinearGradient1963&quot;)" stroke-width="6.33"></path><path d="M85.5 323 a9.5 9.5 0 1 0 19 0 a9.5 9.5 0 1 0 -19 0zM123.5 361 a9.5 9.5 0 1 0 19 0 a9.5 9.5 0 1 0 -19 0z" fill="url(&quot;#SvgjsLinearGradient1963&quot;)"></path><path d="M133 171L171 209L209 209L247 209L285 209M95 209L133 209L171 247M-19 209L19 209L57 209L95 209L133 171L171 171L209 171L247 171" stroke="url(&quot;#SvgjsLinearGradient1963&quot;)" stroke-width="6.33"></path><path d="M237.5 171 a9.5 9.5 0 1 0 19 0 a9.5 9.5 0 1 0 -19 0zM275.5 209 a9.5 9.5 0 1 0 19 0 a9.5 9.5 0 1 0 -19 0zM161.5 247 a9.5 9.5 0 1 0 19 0 a9.5 9.5 0 1 0 -19 0z" fill="url(&quot;#SvgjsLinearGradient1963&quot;)"></path><path d="M209 133L247 95L285 95M133 133L171 95L209 95M19 171L57 133L95 95L133 95M-19 171L19 171L57 171L95 171L133 133L171 133L209 133L247 133L285 133" stroke="url(&quot;#SvgjsLinearGradient1963&quot;)" stroke-width="6.33"></path><path d="M275.5 133 a9.5 9.5 0 1 0 19 0 a9.5 9.5 0 1 0 -19 0zM275.5 95 a9.5 9.5 0 1 0 19 0 a9.5 9.5 0 1 0 -19 0zM199.5 95 a9.5 9.5 0 1 0 19 0 a9.5 9.5 0 1 0 -19 0zM123.5 95 a9.5 9.5 0 1 0 19 0 a9.5 9.5 0 1 0 -19 0z" fill="url(&quot;#SvgjsLinearGradient1963&quot;)"></path></g></g><defs><mask id="SvgjsMask1962"><rect width="1440" height="560" fill="#ffffff"></rect></mask><linearGradient x1="0" y1="280" x2="360" y2="280" gradientUnits="userSpaceOnUse" id="SvgjsLinearGradient1963"><stop stop-color="#3a7cc3" offset="0"></stop><stop stop-color="rgba(221, 17, 17, 0.25)" offset="1"></stop></linearGradient><mask id="SvgjsMask1964"><rect width="1440" height="560" fill="white"></rect><path d="M90.25 247 a4.75 4.75 0 1 0 9.5 0 a4.75 4.75 0 1 0 -9.5 0zM128.25 285 a4.75 4.75 0 1 0 9.5 0 a4.75 4.75 0 1 0 -9.5 0zM52.25 285 a4.75 4.75 0 1 0 9.5 0 a4.75 4.75 0 1 0 -9.5 0z" fill="black"></path><path d="M14.25 247 a4.75 4.75 0 1 0 9.5 0 a4.75 4.75 0 1 0 -9.5 0z" fill="black"></path><path d="M90.25 323 a4.75 4.75 0 1 0 9.5 0 a4.75 4.75 0 1 0 -9.5 0zM128.25 361 a4.75 4.75 0 1 0 9.5 0 a4.75 4.75 0 1 0 -9.5 0z" fill="black"></path><path d="M242.25 171 a4.75 4.75 0 1 0 9.5 0 a4.75 4.75 0 1 0 -9.5 0zM280.25 209 a4.75 4.75 0 1 0 9.5 0 a4.75 4.75 0 1 0 -9.5 0zM166.25 247 a4.75 4.75 0 1 0 9.5 0 a4.75 4.75 0 1 0 -9.5 0z" fill="black"></path><path d="M280.25 133 a4.75 4.75 0 1 0 9.5 0 a4.75 4.75 0 1 0 -9.5 0zM280.25 95 a4.75 4.75 0 1 0 9.5 0 a4.75 4.75 0 1 0 -9.5 0zM204.25 95 a4.75 4.75 0 1 0 9.5 0 a4.75 4.75 0 1 0 -9.5 0zM128.25 95 a4.75 4.75 0 1 0 9.5 0 a4.75 4.75 0 1 0 -9.5 0z" fill="black"></path></mask></defs></svg>