<svg xmlns="http://www.w3.org/2000/svg" version="1.1" xmlns:xlink="http://www.w3.org/1999/xlink" xmlns:svgjs="http://svgjs.dev/svgjs" width="1440" height="760" preserveAspectRatio="none" viewBox="0 0 1440 760"><g mask="url(&quot;#SvgjsMask1023&quot;)" fill="none"><rect width="1440" height="760" x="0" y="0" fill="#0e2a47"></rect><path d="M-82.45 845.84L-82.45 845.84" stroke="#132e65" stroke-width="1.5"></path><path d="M-82.45 845.84L51.75 808.76" stroke="#132e65" stroke-width="1.5"></path><path d="M-82.45 845.84L-105.93 984.59" stroke="#132e65" stroke-width="1.5"></path><path d="M-82.45 845.84L56.05 953.97" stroke="#132e65" stroke-width="1.5"></path><path d="M-82.45 845.84L97.72 707.35" stroke="#132e65" stroke-width="1.5"></path><path d="M-105.93 984.59L-105.93 984.59" stroke="#132e65" stroke-width="1.5"></path><path d="M-105.93 984.59L56.05 953.97" stroke="#132e65" stroke-width="1.5"></path><path d="M109.16 501.1L109.16 501.1" stroke="#132e65" stroke-width="1.5"></path><path d="M109.16 501.1L215.23 504.83" stroke="#132e65" stroke-width="1.5"></path><path d="M109.16 501.1L97.72 707.35" stroke="#132e65" stroke-width="1.5"></path><path d="M109.16 501.1L229.15 707.72" stroke="#132e65" stroke-width="1.5"></path><path d="M109.16 501.1L408.01 521.33" stroke="#132e65" stroke-width="1.5"></path><path d="M109.16 501.1L51.75 808.76" stroke="#132e65" stroke-width="1.5"></path><path d="M97.72 707.35L97.72 707.35" stroke="#132e65" stroke-width="1.5"></path><path d="M97.72 707.35L51.75 808.76" stroke="#132e65" stroke-width="1.5"></path><path d="M97.72 707.35L229.15 707.72" stroke="#132e65" stroke-width="1.5"></path><path d="M97.72 707.35L260.1 825.5" stroke="#132e65" stroke-width="1.5"></path><path d="M51.75 808.76L51.75 808.76" stroke="#132e65" stroke-width="1.5"></path><path d="M51.75 808.76L56.05 953.97" stroke="#132e65" stroke-width="1.5"></path><path d="M51.75 808.76L229.15 707.72" stroke="#132e65" stroke-width="1.5"></path><path d="M51.75 808.76L260.1 825.5" stroke="#132e65" stroke-width="1.5"></path><path d="M51.75 808.76L202.75 983.26" stroke="#132e65" stroke-width="1.5"></path><path d="M56.05 953.97L56.05 953.97" stroke="#132e65" stroke-width="1.5"></path><path d="M56.05 953.97L202.75 983.26" stroke="#132e65" stroke-width="1.5"></path><path d="M215.23 504.83L215.23 504.83" stroke="#132e65" stroke-width="1.5"></path><path d="M215.23 504.83L408.01 521.33" stroke="#132e65" stroke-width="1.5"></path><path d="M215.23 504.83L229.15 707.72" stroke="#132e65" stroke-width="1.5"></path><path d="M215.23 504.83L97.72 707.35" stroke="#132e65" stroke-width="1.5"></path><path d="M229.15 707.72L229.15 707.72" stroke="#132e65" stroke-width="1.5"></path><path d="M229.15 707.72L260.1 825.5" stroke="#132e65" stroke-width="1.5"></path><path d="M260.1 825.5L260.1 825.5" stroke="#132e65" stroke-width="1.5"></path><path d="M260.1 825.5L408.23 860.38" stroke="#132e65" stroke-width="1.5"></path><path d="M260.1 825.5L202.75 983.26" stroke="#132e65" stroke-width="1.5"></path><path d="M202.75 983.26L202.75 983.26" stroke="#132e65" stroke-width="1.5"></path><path d="M202.75 983.26L394.64 1003.46" stroke="#132e65" stroke-width="1.5"></path><path d="M202.75 983.26L408.23 860.38" stroke="#132e65" stroke-width="1.5"></path><path d="M408.01 521.33L408.01 521.33" stroke="#132e65" stroke-width="1.5"></path><path d="M408.01 521.33L408.94 640.77" stroke="#132e65" stroke-width="1.5"></path><path d="M408.01 521.33L523.79 558.93" stroke="#132e65" stroke-width="1.5"></path><path d="M408.94 640.77L408.94 640.77" stroke="#132e65" stroke-width="1.5"></path><path d="M408.23 860.38L408.23 860.38" stroke="#132e65" stroke-width="1.5"></path><path d="M408.23 860.38L502.38 861.52" stroke="#132e65" stroke-width="1.5"></path><path d="M408.23 860.38L394.64 1003.46" stroke="#132e65" stroke-width="1.5"></path><path d="M408.23 860.38L491.3 987.86" stroke="#132e65" stroke-width="1.5"></path><path d="M408.23 860.38L408.94 640.77" stroke="#132e65" stroke-width="1.5"></path><path d="M408.23 860.38L525.7 669.69" stroke="#132e65" stroke-width="1.5"></path><path d="M394.64 1003.46L394.64 1003.46" stroke="#132e65" stroke-width="1.5"></path><path d="M394.64 1003.46L491.3 987.86" stroke="#132e65" stroke-width="1.5"></path><path d="M527.81 391.28L527.81 391.28" stroke="#132e65" stroke-width="1.5"></path><path d="M527.81 391.28L685.34 398.27" stroke="#132e65" stroke-width="1.5"></path><path d="M527.81 391.28L523.79 558.93" stroke="#132e65" stroke-width="1.5"></path><path d="M527.81 391.28L408.01 521.33" stroke="#132e65" stroke-width="1.5"></path><path d="M527.81 391.28L639.83 536.75" stroke="#132e65" stroke-width="1.5"></path><path d="M527.81 391.28L408.94 640.77" stroke="#132e65" stroke-width="1.5"></path><path d="M527.81 391.28L525.7 669.69" stroke="#132e65" stroke-width="1.5"></path><path d="M523.79 558.93L523.79 558.93" stroke="#132e65" stroke-width="1.5"></path><path d="M523.79 558.93L525.7 669.69" stroke="#132e65" stroke-width="1.5"></path><path d="M523.79 558.93L639.83 536.75" stroke="#132e65" stroke-width="1.5"></path><path d="M523.79 558.93L408.94 640.77" stroke="#132e65" stroke-width="1.5"></path><path d="M525.7 669.69L525.7 669.69" stroke="#132e65" stroke-width="1.5"></path><path d="M525.7 669.69L645.22 664.43" stroke="#132e65" stroke-width="1.5"></path><path d="M502.38 861.52L502.38 861.52" stroke="#132e65" stroke-width="1.5"></path><path d="M502.38 861.52L491.3 987.86" stroke="#132e65" stroke-width="1.5"></path><path d="M502.38 861.52L659.62 808.19" stroke="#132e65" stroke-width="1.5"></path><path d="M502.38 861.52L394.64 1003.46" stroke="#132e65" stroke-width="1.5"></path><path d="M502.38 861.52L525.7 669.69" stroke="#132e65" stroke-width="1.5"></path><path d="M502.38 861.52L687.51 1005.72" stroke="#132e65" stroke-width="1.5"></path><path d="M491.3 987.86L491.3 987.86" stroke="#132e65" stroke-width="1.5"></path><path d="M491.3 987.86L687.51 1005.72" stroke="#132e65" stroke-width="1.5"></path><path d="M491.3 987.86L659.62 808.19" stroke="#132e65" stroke-width="1.5"></path><path d="M685.34 398.27L685.34 398.27" stroke="#132e65" stroke-width="1.5"></path><path d="M685.34 398.27L826.32 367.25" stroke="#132e65" stroke-width="1.5"></path><path d="M685.34 398.27L639.83 536.75" stroke="#132e65" stroke-width="1.5"></path><path d="M685.34 398.27L523.79 558.93" stroke="#132e65" stroke-width="1.5"></path><path d="M685.34 398.27L645.22 664.43" stroke="#132e65" stroke-width="1.5"></path><path d="M685.34 398.27L967.65 367.86" stroke="#132e65" stroke-width="1.5"></path><path d="M639.83 536.75L639.83 536.75" stroke="#132e65" stroke-width="1.5"></path><path d="M639.83 536.75L645.22 664.43" stroke="#132e65" stroke-width="1.5"></path><path d="M639.83 536.75L525.7 669.69" stroke="#132e65" stroke-width="1.5"></path><path d="M645.22 664.43L645.22 664.43" stroke="#132e65" stroke-width="1.5"></path><path d="M659.62 808.19L659.62 808.19" stroke="#132e65" stroke-width="1.5"></path><path d="M659.62 808.19L645.22 664.43" stroke="#132e65" stroke-width="1.5"></path><path d="M659.62 808.19L525.7 669.69" stroke="#132e65" stroke-width="1.5"></path><path d="M659.62 808.19L852.94 787.7" stroke="#132e65" stroke-width="1.5"></path><path d="M659.62 808.19L687.51 1005.72" stroke="#132e65" stroke-width="1.5"></path><path d="M659.62 808.19L820.17 661.56" stroke="#132e65" stroke-width="1.5"></path><path d="M687.51 1005.72L687.51 1005.72" stroke="#132e65" stroke-width="1.5"></path><path d="M826.32 367.25L826.32 367.25" stroke="#132e65" stroke-width="1.5"></path><path d="M826.32 367.25L967.65 367.86" stroke="#132e65" stroke-width="1.5"></path><path d="M826.32 367.25L976.39 227.3" stroke="#132e65" stroke-width="1.5"></path><path d="M826.32 367.25L974.24 557.96" stroke="#132e65" stroke-width="1.5"></path><path d="M826.32 367.25L639.83 536.75" stroke="#132e65" stroke-width="1.5"></path><path d="M826.32 367.25L1101.8 356.94" stroke="#132e65" stroke-width="1.5"></path><path d="M820.17 661.56L820.17 661.56" stroke="#132e65" stroke-width="1.5"></path><path d="M820.17 661.56L852.94 787.7" stroke="#132e65" stroke-width="1.5"></path><path d="M820.17 661.56L982.44 691.16" stroke="#132e65" stroke-width="1.5"></path><path d="M820.17 661.56L645.22 664.43" stroke="#132e65" stroke-width="1.5"></path><path d="M852.94 787.7L852.94 787.7" stroke="#132e65" stroke-width="1.5"></path><path d="M852.94 787.7L982.44 691.16" stroke="#132e65" stroke-width="1.5"></path><path d="M852.94 787.7L975.86 982.3" stroke="#132e65" stroke-width="1.5"></path><path d="M968.61 -70.82L968.61 -70.82" stroke="#132e65" stroke-width="1.5"></path><path d="M968.61 -70.82L1128.29 -54.41" stroke="#132e65" stroke-width="1.5"></path><path d="M968.61 -70.82L1125.11 100.91" stroke="#132e65" stroke-width="1.5"></path><path d="M968.61 -70.82L976.39 227.3" stroke="#132e65" stroke-width="1.5"></path><path d="M968.61 -70.82L1275.19 -62.55" stroke="#132e65" stroke-width="1.5"></path><path d="M976.39 227.3L976.39 227.3" stroke="#132e65" stroke-width="1.5"></path><path d="M976.39 227.3L967.65 367.86" stroke="#132e65" stroke-width="1.5"></path><path d="M976.39 227.3L1101.8 356.94" stroke="#132e65" stroke-width="1.5"></path><path d="M976.39 227.3L1125.11 100.91" stroke="#132e65" stroke-width="1.5"></path><path d="M967.65 367.86L967.65 367.86" stroke="#132e65" stroke-width="1.5"></path><path d="M967.65 367.86L1101.8 356.94" stroke="#132e65" stroke-width="1.5"></path><path d="M967.65 367.86L974.24 557.96" stroke="#132e65" stroke-width="1.5"></path><path d="M974.24 557.96L974.24 557.96" stroke="#132e65" stroke-width="1.5"></path><path d="M974.24 557.96L982.44 691.16" stroke="#132e65" stroke-width="1.5"></path><path d="M974.24 557.96L1134.5 530.46" stroke="#132e65" stroke-width="1.5"></path><path d="M982.44 691.16L982.44 691.16" stroke="#132e65" stroke-width="1.5"></path><path d="M982.44 691.16L1151.1 704.17" stroke="#132e65" stroke-width="1.5"></path><path d="M982.44 691.16L1120.2 823.56" stroke="#132e65" stroke-width="1.5"></path><path d="M975.86 982.3L975.86 982.3" stroke="#132e65" stroke-width="1.5"></path><path d="M975.86 982.3L1139.86 951.29" stroke="#132e65" stroke-width="1.5"></path><path d="M975.86 982.3L1120.2 823.56" stroke="#132e65" stroke-width="1.5"></path><path d="M1128.29 -54.41L1128.29 -54.41" stroke="#132e65" stroke-width="1.5"></path><path d="M1128.29 -54.41L1275.19 -62.55" stroke="#132e65" stroke-width="1.5"></path><path d="M1128.29 -54.41L1125.11 100.91" stroke="#132e65" stroke-width="1.5"></path><path d="M1128.29 -54.41L1239.43 73.97" stroke="#132e65" stroke-width="1.5"></path><path d="M1125.11 100.91L1125.11 100.91" stroke="#132e65" stroke-width="1.5"></path><path d="M1125.11 100.91L1239.43 73.97" stroke="#132e65" stroke-width="1.5"></path><path d="M1125.11 100.91L1248.16 242.87" stroke="#132e65" stroke-width="1.5"></path><path d="M1101.8 356.94L1101.8 356.94" stroke="#132e65" stroke-width="1.5"></path><path d="M1101.8 356.94L1264.05 408.31" stroke="#132e65" stroke-width="1.5"></path><path d="M1134.5 530.46L1134.5 530.46" stroke="#132e65" stroke-width="1.5"></path><path d="M1134.5 530.46L1151.1 704.17" stroke="#132e65" stroke-width="1.5"></path><path d="M1134.5 530.46L1305.84 492.86" stroke="#132e65" stroke-width="1.5"></path><path d="M1151.1 704.17L1151.1 704.17" stroke="#132e65" stroke-width="1.5"></path><path d="M1151.1 704.17L1120.2 823.56" stroke="#132e65" stroke-width="1.5"></path><path d="M1151.1 704.17L1280.84 653.98" stroke="#132e65" stroke-width="1.5"></path><path d="M1151.1 704.17L1242.85 833.82" stroke="#132e65" stroke-width="1.5"></path><path d="M1120.2 823.56L1120.2 823.56" stroke="#132e65" stroke-width="1.5"></path><path d="M1120.2 823.56L1242.85 833.82" stroke="#132e65" stroke-width="1.5"></path><path d="M1139.86 951.29L1139.86 951.29" stroke="#132e65" stroke-width="1.5"></path><path d="M1139.86 951.29L1120.2 823.56" stroke="#132e65" stroke-width="1.5"></path><path d="M1139.86 951.29L1242.85 833.82" stroke="#132e65" stroke-width="1.5"></path><path d="M1139.86 951.29L1292.76 1003.83" stroke="#132e65" stroke-width="1.5"></path><path d="M1139.86 951.29L1151.1 704.17" stroke="#132e65" stroke-width="1.5"></path><path d="M1139.86 951.29L1398.56 947.78" stroke="#132e65" stroke-width="1.5"></path><path d="M1275.19 -62.55L1275.19 -62.55" stroke="#132e65" stroke-width="1.5"></path><path d="M1275.19 -62.55L1389.36 -68.53" stroke="#132e65" stroke-width="1.5"></path><path d="M1275.19 -62.55L1239.43 73.97" stroke="#132e65" stroke-width="1.5"></path><path d="M1275.19 -62.55L1125.11 100.91" stroke="#132e65" stroke-width="1.5"></path><path d="M1275.19 -62.55L1248.16 242.87" stroke="#132e65" stroke-width="1.5"></path><path d="M1239.43 73.97L1239.43 73.97" stroke="#132e65" stroke-width="1.5"></path><path d="M1239.43 73.97L1248.16 242.87" stroke="#132e65" stroke-width="1.5"></path><path d="M1248.16 242.87L1248.16 242.87" stroke="#132e65" stroke-width="1.5"></path><path d="M1248.16 242.87L1411.22 226.07" stroke="#132e65" stroke-width="1.5"></path><path d="M1248.16 242.87L1264.05 408.31" stroke="#132e65" stroke-width="1.5"></path><path d="M1248.16 242.87L1101.8 356.94" stroke="#132e65" stroke-width="1.5"></path><path d="M1264.05 408.31L1264.05 408.31" stroke="#132e65" stroke-width="1.5"></path><path d="M1264.05 408.31L1305.84 492.86" stroke="#132e65" stroke-width="1.5"></path><path d="M1264.05 408.31L1426.76 409.39" stroke="#132e65" stroke-width="1.5"></path><path d="M1264.05 408.31L1134.5 530.46" stroke="#132e65" stroke-width="1.5"></path><path d="M1305.84 492.86L1305.84 492.86" stroke="#132e65" stroke-width="1.5"></path><path d="M1305.84 492.86L1426.76 409.39" stroke="#132e65" stroke-width="1.5"></path><path d="M1305.84 492.86L1456.37 517.78" stroke="#132e65" stroke-width="1.5"></path><path d="M1305.84 492.86L1280.84 653.98" stroke="#132e65" stroke-width="1.5"></path><path d="M1305.84 492.86L1440.32 644.32" stroke="#132e65" stroke-width="1.5"></path><path d="M1280.84 653.98L1280.84 653.98" stroke="#132e65" stroke-width="1.5"></path><path d="M1280.84 653.98L1440.32 644.32" stroke="#132e65" stroke-width="1.5"></path><path d="M1242.85 833.82L1242.85 833.82" stroke="#132e65" stroke-width="1.5"></path><path d="M1292.76 1003.83L1292.76 1003.83" stroke="#132e65" stroke-width="1.5"></path><path d="M1292.76 1003.83L1398.56 947.78" stroke="#132e65" stroke-width="1.5"></path><path d="M1292.76 1003.83L1242.85 833.82" stroke="#132e65" stroke-width="1.5"></path><path d="M1292.76 1003.83L1424.3 802.78" stroke="#132e65" stroke-width="1.5"></path><path d="M1292.76 1003.83L1120.2 823.56" stroke="#132e65" stroke-width="1.5"></path><path d="M1292.76 1003.83L1595.56 967.89" stroke="#132e65" stroke-width="1.5"></path><path d="M1389.36 -68.53L1389.36 -68.53" stroke="#132e65" stroke-width="1.5"></path><path d="M1389.36 -68.53L1585.19 -58.56" stroke="#132e65" stroke-width="1.5"></path><path d="M1411.22 226.07L1411.22 226.07" stroke="#132e65" stroke-width="1.5"></path><path d="M1411.22 226.07L1591.59 256.89" stroke="#132e65" stroke-width="1.5"></path><path d="M1411.22 226.07L1426.76 409.39" stroke="#132e65" stroke-width="1.5"></path><path d="M1411.22 226.07L1239.43 73.97" stroke="#132e65" stroke-width="1.5"></path><path d="M1426.76 409.39L1426.76 409.39" stroke="#132e65" stroke-width="1.5"></path><path d="M1426.76 409.39L1456.37 517.78" stroke="#132e65" stroke-width="1.5"></path><path d="M1426.76 409.39L1539.67 553.71" stroke="#132e65" stroke-width="1.5"></path><path d="M1426.76 409.39L1591.59 256.89" stroke="#132e65" stroke-width="1.5"></path><path d="M1456.37 517.78L1456.37 517.78" stroke="#132e65" stroke-width="1.5"></path><path d="M1456.37 517.78L1539.67 553.71" stroke="#132e65" stroke-width="1.5"></path><path d="M1456.37 517.78L1440.32 644.32" stroke="#132e65" stroke-width="1.5"></path><path d="M1456.37 517.78L1552.41 638.74" stroke="#132e65" stroke-width="1.5"></path><path d="M1440.32 644.32L1440.32 644.32" stroke="#132e65" stroke-width="1.5"></path><path d="M1440.32 644.32L1552.41 638.74" stroke="#132e65" stroke-width="1.5"></path><path d="M1440.32 644.32L1539.67 553.71" stroke="#132e65" stroke-width="1.5"></path><path d="M1424.3 802.78L1424.3 802.78" stroke="#132e65" stroke-width="1.5"></path><path d="M1424.3 802.78L1398.56 947.78" stroke="#132e65" stroke-width="1.5"></path><path d="M1424.3 802.78L1440.32 644.32" stroke="#132e65" stroke-width="1.5"></path><path d="M1424.3 802.78L1580.1 858.46" stroke="#132e65" stroke-width="1.5"></path><path d="M1424.3 802.78L1242.85 833.82" stroke="#132e65" stroke-width="1.5"></path><path d="M1424.3 802.78L1280.84 653.98" stroke="#132e65" stroke-width="1.5"></path><path d="M1398.56 947.78L1398.56 947.78" stroke="#132e65" stroke-width="1.5"></path><path d="M1398.56 947.78L1242.85 833.82" stroke="#132e65" stroke-width="1.5"></path><path d="M1398.56 947.78L1595.56 967.89" stroke="#132e65" stroke-width="1.5"></path><path d="M1398.56 947.78L1580.1 858.46" stroke="#132e65" stroke-width="1.5"></path><path d="M1585.19 -58.56L1585.19 -58.56" stroke="#132e65" stroke-width="1.5"></path><path d="M1585.19 -58.56L1610.77 54.87" stroke="#132e65" stroke-width="1.5"></path><path d="M1585.19 -58.56L1275.19 -62.55" stroke="#132e65" stroke-width="1.5"></path><path d="M1610.77 54.87L1610.77 54.87" stroke="#132e65" stroke-width="1.5"></path><path d="M1610.77 54.87L1591.59 256.89" stroke="#132e65" stroke-width="1.5"></path><path d="M1610.77 54.87L1389.36 -68.53" stroke="#132e65" stroke-width="1.5"></path><path d="M1610.77 54.87L1411.22 226.07" stroke="#132e65" stroke-width="1.5"></path><path d="M1591.59 256.89L1591.59 256.89" stroke="#132e65" stroke-width="1.5"></path><path d="M1591.59 256.89L1456.37 517.78" stroke="#132e65" stroke-width="1.5"></path><path d="M1591.59 256.89L1539.67 553.71" stroke="#132e65" stroke-width="1.5"></path><path d="M1591.59 256.89L1585.19 -58.56" stroke="#132e65" stroke-width="1.5"></path><path d="M1539.67 553.71L1539.67 553.71" stroke="#132e65" stroke-width="1.5"></path><path d="M1539.67 553.71L1552.41 638.74" stroke="#132e65" stroke-width="1.5"></path><path d="M1552.41 638.74L1552.41 638.74" stroke="#132e65" stroke-width="1.5"></path><path d="M1552.41 638.74L1424.3 802.78" stroke="#132e65" stroke-width="1.5"></path><path d="M1552.41 638.74L1580.1 858.46" stroke="#132e65" stroke-width="1.5"></path><path d="M1552.41 638.74L1426.76 409.39" stroke="#132e65" stroke-width="1.5"></path><path d="M1580.1 858.46L1580.1 858.46" stroke="#132e65" stroke-width="1.5"></path><path d="M1580.1 858.46L1595.56 967.89" stroke="#132e65" stroke-width="1.5"></path><path d="M1580.1 858.46L1440.32 644.32" stroke="#132e65" stroke-width="1.5"></path><path d="M1595.56 967.89L1595.56 967.89" stroke="#132e65" stroke-width="1.5"></path><path d="M1595.56 967.89L1424.3 802.78" stroke="#132e65" stroke-width="1.5"></path><path d="M1595.56 967.89L1552.41 638.74" stroke="#132e65" stroke-width="1.5"></path><circle r="5" cx="-82.45" cy="845.84" fill="#132e65"></circle><circle r="5" cx="-105.93" cy="984.59" fill="#132e65"></circle><circle r="5" cx="109.16" cy="501.1" fill="#132e65"></circle><circle r="5" cx="97.72" cy="707.35" fill="#132e65"></circle><circle r="5" cx="51.75" cy="808.76" fill="#132e65"></circle><circle r="5" cx="56.05" cy="953.97" fill="#132e65"></circle><circle r="5" cx="215.23" cy="504.83" fill="#132e65"></circle><circle r="5" cx="229.15" cy="707.72" fill="#132e65"></circle><circle r="5" cx="260.1" cy="825.5" fill="#132e65"></circle><circle r="5" cx="202.75" cy="983.26" fill="#132e65"></circle><circle r="5" cx="408.01" cy="521.33" fill="#132e65"></circle><circle r="5" cx="408.94" cy="640.77" fill="#132e65"></circle><circle r="5" cx="408.23" cy="860.38" fill="#132e65"></circle><circle r="5" cx="394.64" cy="1003.46" fill="#132e65"></circle><circle r="5" cx="527.81" cy="391.28" fill="#132e65"></circle><circle r="5" cx="523.79" cy="558.93" fill="#132e65"></circle><circle r="5" cx="525.7" cy="669.69" fill="#132e65"></circle><circle r="5" cx="502.38" cy="861.52" fill="#132e65"></circle><circle r="5" cx="491.3" cy="987.86" fill="#132e65"></circle><circle r="5" cx="685.34" cy="398.27" fill="#132e65"></circle><circle r="5" cx="639.83" cy="536.75" fill="#132e65"></circle><circle r="5" cx="645.22" cy="664.43" fill="#132e65"></circle><circle r="5" cx="659.62" cy="808.19" fill="#132e65"></circle><circle r="5" cx="687.51" cy="1005.72" fill="#132e65"></circle><circle r="5" cx="826.32" cy="367.25" fill="#132e65"></circle><circle r="5" cx="820.17" cy="661.56" fill="#132e65"></circle><circle r="5" cx="852.94" cy="787.7" fill="#132e65"></circle><circle r="5" cx="968.61" cy="-70.82" fill="#132e65"></circle><circle r="5" cx="976.39" cy="227.3" fill="#132e65"></circle><circle r="5" cx="967.65" cy="367.86" fill="#132e65"></circle><circle r="5" cx="974.24" cy="557.96" fill="#132e65"></circle><circle r="5" cx="982.44" cy="691.16" fill="#132e65"></circle><circle r="5" cx="975.86" cy="982.3" fill="#132e65"></circle><circle r="5" cx="1128.29" cy="-54.41" fill="#132e65"></circle><circle r="5" cx="1125.11" cy="100.91" fill="#132e65"></circle><circle r="5" cx="1101.8" cy="356.94" fill="#132e65"></circle><circle r="5" cx="1134.5" cy="530.46" fill="#132e65"></circle><circle r="5" cx="1151.1" cy="704.17" fill="#132e65"></circle><circle r="5" cx="1120.2" cy="823.56" fill="#132e65"></circle><circle r="5" cx="1139.86" cy="951.29" fill="#132e65"></circle><circle r="5" cx="1275.19" cy="-62.55" fill="#132e65"></circle><circle r="5" cx="1239.43" cy="73.97" fill="#132e65"></circle><circle r="5" cx="1248.16" cy="242.87" fill="#132e65"></circle><circle r="5" cx="1264.05" cy="408.31" fill="#132e65"></circle><circle r="5" cx="1305.84" cy="492.86" fill="#132e65"></circle><circle r="5" cx="1280.84" cy="653.98" fill="#132e65"></circle><circle r="5" cx="1242.85" cy="833.82" fill="#132e65"></circle><circle r="5" cx="1292.76" cy="1003.83" fill="#132e65"></circle><circle r="5" cx="1389.36" cy="-68.53" fill="#132e65"></circle><circle r="5" cx="1411.22" cy="226.07" fill="#132e65"></circle><circle r="5" cx="1426.76" cy="409.39" fill="#132e65"></circle><circle r="5" cx="1456.37" cy="517.78" fill="#132e65"></circle><circle r="5" cx="1440.32" cy="644.32" fill="#132e65"></circle><circle r="5" cx="1424.3" cy="802.78" fill="#132e65"></circle><circle r="5" cx="1398.56" cy="947.78" fill="#132e65"></circle><circle r="5" cx="1585.19" cy="-58.56" fill="#132e65"></circle><circle r="5" cx="1610.77" cy="54.87" fill="#132e65"></circle><circle r="5" cx="1591.59" cy="256.89" fill="#132e65"></circle><circle r="5" cx="1539.67" cy="553.71" fill="#132e65"></circle><circle r="5" cx="1552.41" cy="638.74" fill="#132e65"></circle><circle r="5" cx="1580.1" cy="858.46" fill="#132e65"></circle><circle r="5" cx="1595.56" cy="967.89" fill="#132e65"></circle><path d="M109.96 640.95L109.96 640.95" stroke="hsl(228.5, 77.2%, 51.5%)" stroke-width="1.5"></path><path d="M109.96 640.95L-40.31 700.2" stroke="hsl(228.5, 77.2%, 51.5%)" stroke-width="1.5"></path><path d="M109.96 640.95L258.86 706.73" stroke="hsl(228.5, 77.2%, 51.5%)" stroke-width="1.5"></path><path d="M88.31 824.14L88.31 824.14" stroke="hsl(228.5, 77.2%, 51.5%)" stroke-width="1.5"></path><path d="M88.31 824.14L-46.35 813.43" stroke="hsl(228.5, 77.2%, 51.5%)" stroke-width="1.5"></path><path d="M88.31 824.14L40.49 976.54" stroke="hsl(228.5, 77.2%, 51.5%)" stroke-width="1.5"></path><path d="M40.49 976.54L40.49 976.54" stroke="hsl(228.5, 77.2%, 51.5%)" stroke-width="1.5"></path><path d="M40.49 976.54L-100.76 977.95" stroke="hsl(228.5, 77.2%, 51.5%)" stroke-width="1.5"></path><path d="M40.49 976.54L-46.35 813.43" stroke="hsl(228.5, 77.2%, 51.5%)" stroke-width="1.5"></path><path d="M40.49 976.54L249.73 1012.04" stroke="hsl(228.5, 77.2%, 51.5%)" stroke-width="1.5"></path><path d="M40.49 976.54L255.81 856.01" stroke="hsl(228.5, 77.2%, 51.5%)" stroke-width="1.5"></path><path d="M40.49 976.54L-40.31 700.2" stroke="hsl(228.5, 77.2%, 51.5%)" stroke-width="1.5"></path><path d="M656.41 693.34L656.41 693.34" stroke="hsl(228.5, 77.2%, 51.5%)" stroke-width="1.5"></path><path d="M656.41 693.34L560.02 690.19" stroke="hsl(228.5, 77.2%, 51.5%)" stroke-width="1.5"></path><path d="M656.41 693.34L666.68 846.35" stroke="hsl(228.5, 77.2%, 51.5%)" stroke-width="1.5"></path><path d="M825.35 503.03L825.35 503.03" stroke="hsl(228.5, 77.2%, 51.5%)" stroke-width="1.5"></path><path d="M825.35 503.03L946.45 390.54" stroke="hsl(228.5, 77.2%, 51.5%)" stroke-width="1.5"></path><path d="M825.35 503.03L834.93 671.29" stroke="hsl(228.5, 77.2%, 51.5%)" stroke-width="1.5"></path><path d="M825.35 503.03L647.49 526.36" stroke="hsl(228.5, 77.2%, 51.5%)" stroke-width="1.5"></path><path d="M825.35 503.03L1007.28 502.53" stroke="hsl(228.5, 77.2%, 51.5%)" stroke-width="1.5"></path><path d="M825.35 503.03L938.93 685.35" stroke="hsl(228.5, 77.2%, 51.5%)" stroke-width="1.5"></path><path d="M834.93 671.29L834.93 671.29" stroke="hsl(228.5, 77.2%, 51.5%)" stroke-width="1.5"></path><path d="M834.93 671.29L938.93 685.35" stroke="hsl(228.5, 77.2%, 51.5%)" stroke-width="1.5"></path><path d="M834.93 671.29L815.74 813.91" stroke="hsl(228.5, 77.2%, 51.5%)" stroke-width="1.5"></path><path d="M834.93 671.29L656.41 693.34" stroke="hsl(228.5, 77.2%, 51.5%)" stroke-width="1.5"></path><path d="M834.93 671.29L647.49 526.36" stroke="hsl(228.5, 77.2%, 51.5%)" stroke-width="1.5"></path><path d="M834.93 671.29L1003.98 837.99" stroke="hsl(228.5, 77.2%, 51.5%)" stroke-width="1.5"></path><path d="M838.69 947.3L838.69 947.3" stroke="hsl(228.5, 77.2%, 51.5%)" stroke-width="1.5"></path><path d="M838.69 947.3L815.74 813.91" stroke="hsl(228.5, 77.2%, 51.5%)" stroke-width="1.5"></path><path d="M838.69 947.3L994.55 962.34" stroke="hsl(228.5, 77.2%, 51.5%)" stroke-width="1.5"></path><path d="M838.69 947.3L1003.98 837.99" stroke="hsl(228.5, 77.2%, 51.5%)" stroke-width="1.5"></path><path d="M838.69 947.3L666.68 846.35" stroke="hsl(228.5, 77.2%, 51.5%)" stroke-width="1.5"></path><path d="M838.69 947.3L644.67 1006.99" stroke="hsl(228.5, 77.2%, 51.5%)" stroke-width="1.5"></path><path d="M1003.98 837.99L1003.98 837.99" stroke="hsl(228.5, 77.2%, 51.5%)" stroke-width="1.5"></path><path d="M1003.98 837.99L994.55 962.34" stroke="hsl(228.5, 77.2%, 51.5%)" stroke-width="1.5"></path><path d="M1003.98 837.99L1147.6 820.84" stroke="hsl(228.5, 77.2%, 51.5%)" stroke-width="1.5"></path><path d="M1003.98 837.99L938.93 685.35" stroke="hsl(228.5, 77.2%, 51.5%)" stroke-width="1.5"></path><path d="M1147.6 820.84L1147.6 820.84" stroke="hsl(228.5, 77.2%, 51.5%)" stroke-width="1.5"></path><path d="M1147.6 820.84L1242.18 815.19" stroke="hsl(228.5, 77.2%, 51.5%)" stroke-width="1.5"></path><path d="M1147.6 820.84L1138.49 977.59" stroke="hsl(228.5, 77.2%, 51.5%)" stroke-width="1.5"></path><path d="M1266.19 -46.38L1266.19 -46.38" stroke="hsl(228.5, 77.2%, 51.5%)" stroke-width="1.5"></path><path d="M1266.19 -46.38L1309.15 37.78" stroke="hsl(228.5, 77.2%, 51.5%)" stroke-width="1.5"></path><path d="M1266.19 -46.38L1447.48 -71.48" stroke="hsl(228.5, 77.2%, 51.5%)" stroke-width="1.5"></path><path d="M1266.19 -46.38L1454.47 63.38" stroke="hsl(228.5, 77.2%, 51.5%)" stroke-width="1.5"></path><path d="M1266.19 -46.38L1293.53 193.65" stroke="hsl(228.5, 77.2%, 51.5%)" stroke-width="1.5"></path><path d="M1266.19 -46.38L1140.01 195.8" stroke="hsl(228.5, 77.2%, 51.5%)" stroke-width="1.5"></path><path d="M1266.19 -46.38L1455.38 195.99" stroke="hsl(228.5, 77.2%, 51.5%)" stroke-width="1.5"></path><path d="M1309.15 37.78L1309.15 37.78" stroke="hsl(228.5, 77.2%, 51.5%)" stroke-width="1.5"></path><path d="M1309.15 37.78L1454.47 63.38" stroke="hsl(228.5, 77.2%, 51.5%)" stroke-width="1.5"></path><path d="M1309.15 37.78L1293.53 193.65" stroke="hsl(228.5, 77.2%, 51.5%)" stroke-width="1.5"></path><path d="M1309.15 37.78L1447.48 -71.48" stroke="hsl(228.5, 77.2%, 51.5%)" stroke-width="1.5"></path><path d="M1293.53 193.65L1293.53 193.65" stroke="hsl(228.5, 77.2%, 51.5%)" stroke-width="1.5"></path><path d="M1293.53 193.65L1140.01 195.8" stroke="hsl(228.5, 77.2%, 51.5%)" stroke-width="1.5"></path><path d="M1293.53 193.65L1310.55 347.31" stroke="hsl(228.5, 77.2%, 51.5%)" stroke-width="1.5"></path><path d="M1310.55 347.31L1310.55 347.31" stroke="hsl(228.5, 77.2%, 51.5%)" stroke-width="1.5"></path><path d="M1310.55 347.31L1427.99 380.53" stroke="hsl(228.5, 77.2%, 51.5%)" stroke-width="1.5"></path><path d="M1310.55 347.31L1149.89 377.36" stroke="hsl(228.5, 77.2%, 51.5%)" stroke-width="1.5"></path><path d="M1310.45 990.27L1310.45 990.27" stroke="hsl(228.5, 77.2%, 51.5%)" stroke-width="1.5"></path><path d="M1310.45 990.27L1428.24 977.3" stroke="hsl(228.5, 77.2%, 51.5%)" stroke-width="1.5"></path><path d="M1310.45 990.27L1138.49 977.59" stroke="hsl(228.5, 77.2%, 51.5%)" stroke-width="1.5"></path><path d="M1310.45 990.27L1242.18 815.19" stroke="hsl(228.5, 77.2%, 51.5%)" stroke-width="1.5"></path><path d="M1310.45 990.27L1436.17 836.47" stroke="hsl(228.5, 77.2%, 51.5%)" stroke-width="1.5"></path><path d="M1447.48 -71.48L1447.48 -71.48" stroke="hsl(228.5, 77.2%, 51.5%)" stroke-width="1.5"></path><path d="M1447.48 -71.48L1578.03 -95.37" stroke="hsl(228.5, 77.2%, 51.5%)" stroke-width="1.5"></path><path d="M1447.48 -71.48L1454.47 63.38" stroke="hsl(228.5, 77.2%, 51.5%)" stroke-width="1.5"></path><path d="M1447.48 -71.48L1603.09 107.27" stroke="hsl(228.5, 77.2%, 51.5%)" stroke-width="1.5"></path><path d="M1447.48 -71.48L1455.38 195.99" stroke="hsl(228.5, 77.2%, 51.5%)" stroke-width="1.5"></path><path d="M1438.59 519.91L1438.59 519.91" stroke="hsl(228.5, 77.2%, 51.5%)" stroke-width="1.5"></path><path d="M1438.59 519.91L1427.99 380.53" stroke="hsl(228.5, 77.2%, 51.5%)" stroke-width="1.5"></path><path d="M1438.59 519.91L1598.73 531.41" stroke="hsl(228.5, 77.2%, 51.5%)" stroke-width="1.5"></path><path d="M1438.59 519.91L1542.21 381.15" stroke="hsl(228.5, 77.2%, 51.5%)" stroke-width="1.5"></path><path d="M1438.59 519.91L1250.7 499.45" stroke="hsl(228.5, 77.2%, 51.5%)" stroke-width="1.5"></path><path d="M1428.24 977.3L1428.24 977.3" stroke="hsl(228.5, 77.2%, 51.5%)" stroke-width="1.5"></path><path d="M1428.24 977.3L1560.71 981.43" stroke="hsl(228.5, 77.2%, 51.5%)" stroke-width="1.5"></path><path d="M1428.24 977.3L1436.17 836.47" stroke="hsl(228.5, 77.2%, 51.5%)" stroke-width="1.5"></path><path d="M1428.24 977.3L1242.18 815.19" stroke="hsl(228.5, 77.2%, 51.5%)" stroke-width="1.5"></path><path d="M1428.24 977.3L1138.49 977.59" stroke="hsl(228.5, 77.2%, 51.5%)" stroke-width="1.5"></path><path d="M1428.24 977.3L1581.22 702.42" stroke="hsl(228.5, 77.2%, 51.5%)" stroke-width="1.5"></path><path d="M1560.71 981.43L1560.71 981.43" stroke="hsl(228.5, 77.2%, 51.5%)" stroke-width="1.5"></path><path d="M1560.71 981.43L1436.17 836.47" stroke="hsl(228.5, 77.2%, 51.5%)" stroke-width="1.5"></path><path d="M1560.71 981.43L1310.45 990.27" stroke="hsl(228.5, 77.2%, 51.5%)" stroke-width="1.5"></path><path d="M1560.71 981.43L1581.22 702.42" stroke="hsl(228.5, 77.2%, 51.5%)" stroke-width="1.5"></path><path d="M1560.71 981.43L1242.18 815.19" stroke="hsl(228.5, 77.2%, 51.5%)" stroke-width="1.5"></path><path d="M-40.31 700.2L-40.31 700.2" stroke="hsl(228.5, 77.2%, 51.5%)" stroke-width="1.5"></path><path d="M-40.31 700.2L-46.35 813.43" stroke="hsl(228.5, 77.2%, 51.5%)" stroke-width="1.5"></path><path d="M-40.31 700.2L88.31 824.14" stroke="hsl(228.5, 77.2%, 51.5%)" stroke-width="1.5"></path><path d="M-40.31 700.2L-100.76 977.95" stroke="hsl(228.5, 77.2%, 51.5%)" stroke-width="1.5"></path><path d="M-46.35 813.43L-46.35 813.43" stroke="hsl(228.5, 77.2%, 51.5%)" stroke-width="1.5"></path><path d="M-46.35 813.43L-100.76 977.95" stroke="hsl(228.5, 77.2%, 51.5%)" stroke-width="1.5"></path><path d="M-46.35 813.43L109.96 640.95" stroke="hsl(228.5, 77.2%, 51.5%)" stroke-width="1.5"></path><path d="M-46.35 813.43L255.81 856.01" stroke="hsl(228.5, 77.2%, 51.5%)" stroke-width="1.5"></path><path d="M-100.76 977.95L-100.76 977.95" stroke="hsl(228.5, 77.2%, 51.5%)" stroke-width="1.5"></path><path d="M-100.76 977.95L88.31 824.14" stroke="hsl(228.5, 77.2%, 51.5%)" stroke-width="1.5"></path><path d="M258.86 706.73L258.86 706.73" stroke="hsl(228.5, 77.2%, 51.5%)" stroke-width="1.5"></path><path d="M258.86 706.73L362.2 675.76" stroke="hsl(228.5, 77.2%, 51.5%)" stroke-width="1.5"></path><path d="M258.86 706.73L255.81 856.01" stroke="hsl(228.5, 77.2%, 51.5%)" stroke-width="1.5"></path><path d="M258.86 706.73L406.14 816.26" stroke="hsl(228.5, 77.2%, 51.5%)" stroke-width="1.5"></path><path d="M258.86 706.73L88.31 824.14" stroke="hsl(228.5, 77.2%, 51.5%)" stroke-width="1.5"></path><path d="M258.86 706.73L490.65 805.43" stroke="hsl(228.5, 77.2%, 51.5%)" stroke-width="1.5"></path><path d="M255.81 856.01L255.81 856.01" stroke="hsl(228.5, 77.2%, 51.5%)" stroke-width="1.5"></path><path d="M255.81 856.01L346.31 975.58" stroke="hsl(228.5, 77.2%, 51.5%)" stroke-width="1.5"></path><path d="M249.73 1012.04L249.73 1012.04" stroke="hsl(228.5, 77.2%, 51.5%)" stroke-width="1.5"></path><path d="M249.73 1012.04L346.31 975.58" stroke="hsl(228.5, 77.2%, 51.5%)" stroke-width="1.5"></path><path d="M249.73 1012.04L255.81 856.01" stroke="hsl(228.5, 77.2%, 51.5%)" stroke-width="1.5"></path><path d="M362.2 675.76L362.2 675.76" stroke="hsl(228.5, 77.2%, 51.5%)" stroke-width="1.5"></path><path d="M362.2 675.76L406.14 816.26" stroke="hsl(228.5, 77.2%, 51.5%)" stroke-width="1.5"></path><path d="M362.2 675.76L490.65 805.43" stroke="hsl(228.5, 77.2%, 51.5%)" stroke-width="1.5"></path><path d="M362.2 675.76L560.02 690.19" stroke="hsl(228.5, 77.2%, 51.5%)" stroke-width="1.5"></path><path d="M362.2 675.76L255.81 856.01" stroke="hsl(228.5, 77.2%, 51.5%)" stroke-width="1.5"></path><path d="M362.2 675.76L109.96 640.95" stroke="hsl(228.5, 77.2%, 51.5%)" stroke-width="1.5"></path><path d="M406.14 816.26L406.14 816.26" stroke="hsl(228.5, 77.2%, 51.5%)" stroke-width="1.5"></path><path d="M406.14 816.26L490.65 805.43" stroke="hsl(228.5, 77.2%, 51.5%)" stroke-width="1.5"></path><path d="M406.14 816.26L255.81 856.01" stroke="hsl(228.5, 77.2%, 51.5%)" stroke-width="1.5"></path><path d="M406.14 816.26L346.31 975.58" stroke="hsl(228.5, 77.2%, 51.5%)" stroke-width="1.5"></path><path d="M346.31 975.58L346.31 975.58" stroke="hsl(228.5, 77.2%, 51.5%)" stroke-width="1.5"></path><path d="M346.31 975.58L501.05 966.41" stroke="hsl(228.5, 77.2%, 51.5%)" stroke-width="1.5"></path><path d="M346.31 975.58L490.65 805.43" stroke="hsl(228.5, 77.2%, 51.5%)" stroke-width="1.5"></path><path d="M346.31 975.58L258.86 706.73" stroke="hsl(228.5, 77.2%, 51.5%)" stroke-width="1.5"></path><path d="M560.02 690.19L560.02 690.19" stroke="hsl(228.5, 77.2%, 51.5%)" stroke-width="1.5"></path><path d="M560.02 690.19L490.65 805.43" stroke="hsl(228.5, 77.2%, 51.5%)" stroke-width="1.5"></path><path d="M560.02 690.19L647.49 526.36" stroke="hsl(228.5, 77.2%, 51.5%)" stroke-width="1.5"></path><path d="M560.02 690.19L666.68 846.35" stroke="hsl(228.5, 77.2%, 51.5%)" stroke-width="1.5"></path><path d="M490.65 805.43L490.65 805.43" stroke="hsl(228.5, 77.2%, 51.5%)" stroke-width="1.5"></path><path d="M490.65 805.43L501.05 966.41" stroke="hsl(228.5, 77.2%, 51.5%)" stroke-width="1.5"></path><path d="M490.65 805.43L666.68 846.35" stroke="hsl(228.5, 77.2%, 51.5%)" stroke-width="1.5"></path><path d="M490.65 805.43L656.41 693.34" stroke="hsl(228.5, 77.2%, 51.5%)" stroke-width="1.5"></path><path d="M501.05 966.41L501.05 966.41" stroke="hsl(228.5, 77.2%, 51.5%)" stroke-width="1.5"></path><path d="M501.05 966.41L644.67 1006.99" stroke="hsl(228.5, 77.2%, 51.5%)" stroke-width="1.5"></path><path d="M647.49 526.36L647.49 526.36" stroke="hsl(228.5, 77.2%, 51.5%)" stroke-width="1.5"></path><path d="M647.49 526.36L656.41 693.34" stroke="hsl(228.5, 77.2%, 51.5%)" stroke-width="1.5"></path><path d="M647.49 526.36L490.65 805.43" stroke="hsl(228.5, 77.2%, 51.5%)" stroke-width="1.5"></path><path d="M666.68 846.35L666.68 846.35" stroke="hsl(228.5, 77.2%, 51.5%)" stroke-width="1.5"></path><path d="M666.68 846.35L815.74 813.91" stroke="hsl(228.5, 77.2%, 51.5%)" stroke-width="1.5"></path><path d="M666.68 846.35L644.67 1006.99" stroke="hsl(228.5, 77.2%, 51.5%)" stroke-width="1.5"></path><path d="M644.67 1006.99L644.67 1006.99" stroke="hsl(228.5, 77.2%, 51.5%)" stroke-width="1.5"></path><path d="M644.67 1006.99L490.65 805.43" stroke="hsl(228.5, 77.2%, 51.5%)" stroke-width="1.5"></path><path d="M644.67 1006.99L815.74 813.91" stroke="hsl(228.5, 77.2%, 51.5%)" stroke-width="1.5"></path><path d="M644.67 1006.99L346.31 975.58" stroke="hsl(228.5, 77.2%, 51.5%)" stroke-width="1.5"></path><path d="M815.74 813.91L815.74 813.91" stroke="hsl(228.5, 77.2%, 51.5%)" stroke-width="1.5"></path><path d="M815.74 813.91L938.93 685.35" stroke="hsl(228.5, 77.2%, 51.5%)" stroke-width="1.5"></path><path d="M946.45 390.54L946.45 390.54" stroke="hsl(228.5, 77.2%, 51.5%)" stroke-width="1.5"></path><path d="M946.45 390.54L1007.28 502.53" stroke="hsl(228.5, 77.2%, 51.5%)" stroke-width="1.5"></path><path d="M946.45 390.54L1149.89 377.36" stroke="hsl(228.5, 77.2%, 51.5%)" stroke-width="1.5"></path><path d="M946.45 390.54L1089.29 537.43" stroke="hsl(228.5, 77.2%, 51.5%)" stroke-width="1.5"></path><path d="M946.45 390.54L1140.01 195.8" stroke="hsl(228.5, 77.2%, 51.5%)" stroke-width="1.5"></path><path d="M946.45 390.54L938.93 685.35" stroke="hsl(228.5, 77.2%, 51.5%)" stroke-width="1.5"></path><path d="M1007.28 502.53L1007.28 502.53" stroke="hsl(228.5, 77.2%, 51.5%)" stroke-width="1.5"></path><path d="M1007.28 502.53L1089.29 537.43" stroke="hsl(228.5, 77.2%, 51.5%)" stroke-width="1.5"></path><path d="M938.93 685.35L938.93 685.35" stroke="hsl(228.5, 77.2%, 51.5%)" stroke-width="1.5"></path><path d="M938.93 685.35L1007.28 502.53" stroke="hsl(228.5, 77.2%, 51.5%)" stroke-width="1.5"></path><path d="M938.93 685.35L1089.29 537.43" stroke="hsl(228.5, 77.2%, 51.5%)" stroke-width="1.5"></path><path d="M994.55 962.34L994.55 962.34" stroke="hsl(228.5, 77.2%, 51.5%)" stroke-width="1.5"></path><path d="M994.55 962.34L1138.49 977.59" stroke="hsl(228.5, 77.2%, 51.5%)" stroke-width="1.5"></path><path d="M994.55 962.34L1147.6 820.84" stroke="hsl(228.5, 77.2%, 51.5%)" stroke-width="1.5"></path><path d="M1140.01 195.8L1140.01 195.8" stroke="hsl(228.5, 77.2%, 51.5%)" stroke-width="1.5"></path><path d="M1140.01 195.8L1149.89 377.36" stroke="hsl(228.5, 77.2%, 51.5%)" stroke-width="1.5"></path><path d="M1140.01 195.8L1310.55 347.31" stroke="hsl(228.5, 77.2%, 51.5%)" stroke-width="1.5"></path><path d="M1149.89 377.36L1149.89 377.36" stroke="hsl(228.5, 77.2%, 51.5%)" stroke-width="1.5"></path><path d="M1149.89 377.36L1250.7 499.45" stroke="hsl(228.5, 77.2%, 51.5%)" stroke-width="1.5"></path><path d="M1089.29 537.43L1089.29 537.43" stroke="hsl(228.5, 77.2%, 51.5%)" stroke-width="1.5"></path><path d="M1089.29 537.43L1147.86 653.81" stroke="hsl(228.5, 77.2%, 51.5%)" stroke-width="1.5"></path><path d="M1089.29 537.43L1250.7 499.45" stroke="hsl(228.5, 77.2%, 51.5%)" stroke-width="1.5"></path><path d="M1089.29 537.43L1149.89 377.36" stroke="hsl(228.5, 77.2%, 51.5%)" stroke-width="1.5"></path><path d="M1147.86 653.81L1147.86 653.81" stroke="hsl(228.5, 77.2%, 51.5%)" stroke-width="1.5"></path><path d="M1147.86 653.81L1248.54 698.21" stroke="hsl(228.5, 77.2%, 51.5%)" stroke-width="1.5"></path><path d="M1147.86 653.81L1147.6 820.84" stroke="hsl(228.5, 77.2%, 51.5%)" stroke-width="1.5"></path><path d="M1147.86 653.81L1250.7 499.45" stroke="hsl(228.5, 77.2%, 51.5%)" stroke-width="1.5"></path><path d="M1147.86 653.81L1242.18 815.19" stroke="hsl(228.5, 77.2%, 51.5%)" stroke-width="1.5"></path><path d="M1147.86 653.81L1007.28 502.53" stroke="hsl(228.5, 77.2%, 51.5%)" stroke-width="1.5"></path><path d="M1138.49 977.59L1138.49 977.59" stroke="hsl(228.5, 77.2%, 51.5%)" stroke-width="1.5"></path><path d="M1138.49 977.59L1242.18 815.19" stroke="hsl(228.5, 77.2%, 51.5%)" stroke-width="1.5"></path><path d="M1138.49 977.59L1003.98 837.99" stroke="hsl(228.5, 77.2%, 51.5%)" stroke-width="1.5"></path><path d="M1250.7 499.45L1250.7 499.45" stroke="hsl(228.5, 77.2%, 51.5%)" stroke-width="1.5"></path><path d="M1250.7 499.45L1310.55 347.31" stroke="hsl(228.5, 77.2%, 51.5%)" stroke-width="1.5"></path><path d="M1248.54 698.21L1248.54 698.21" stroke="hsl(228.5, 77.2%, 51.5%)" stroke-width="1.5"></path><path d="M1248.54 698.21L1242.18 815.19" stroke="hsl(228.5, 77.2%, 51.5%)" stroke-width="1.5"></path><path d="M1242.18 815.19L1242.18 815.19" stroke="hsl(228.5, 77.2%, 51.5%)" stroke-width="1.5"></path><path d="M1454.47 63.38L1454.47 63.38" stroke="hsl(228.5, 77.2%, 51.5%)" stroke-width="1.5"></path><path d="M1454.47 63.38L1455.38 195.99" stroke="hsl(228.5, 77.2%, 51.5%)" stroke-width="1.5"></path><path d="M1454.47 63.38L1603.09 107.27" stroke="hsl(228.5, 77.2%, 51.5%)" stroke-width="1.5"></path><path d="M1455.38 195.99L1455.38 195.99" stroke="hsl(228.5, 77.2%, 51.5%)" stroke-width="1.5"></path><path d="M1455.38 195.99L1599.33 247.4" stroke="hsl(228.5, 77.2%, 51.5%)" stroke-width="1.5"></path><path d="M1455.38 195.99L1293.53 193.65" stroke="hsl(228.5, 77.2%, 51.5%)" stroke-width="1.5"></path><path d="M1455.38 195.99L1603.09 107.27" stroke="hsl(228.5, 77.2%, 51.5%)" stroke-width="1.5"></path><path d="M1455.38 195.99L1427.99 380.53" stroke="hsl(228.5, 77.2%, 51.5%)" stroke-width="1.5"></path><path d="M1455.38 195.99L1542.21 381.15" stroke="hsl(228.5, 77.2%, 51.5%)" stroke-width="1.5"></path><path d="M1427.99 380.53L1427.99 380.53" stroke="hsl(228.5, 77.2%, 51.5%)" stroke-width="1.5"></path><path d="M1427.99 380.53L1542.21 381.15" stroke="hsl(228.5, 77.2%, 51.5%)" stroke-width="1.5"></path><path d="M1436.17 836.47L1436.17 836.47" stroke="hsl(228.5, 77.2%, 51.5%)" stroke-width="1.5"></path><path d="M1436.17 836.47L1242.18 815.19" stroke="hsl(228.5, 77.2%, 51.5%)" stroke-width="1.5"></path><path d="M1436.17 836.47L1581.22 702.42" stroke="hsl(228.5, 77.2%, 51.5%)" stroke-width="1.5"></path><path d="M1436.17 836.47L1248.54 698.21" stroke="hsl(228.5, 77.2%, 51.5%)" stroke-width="1.5"></path><path d="M1578.03 -95.37L1578.03 -95.37" stroke="hsl(228.5, 77.2%, 51.5%)" stroke-width="1.5"></path><path d="M1578.03 -95.37L1454.47 63.38" stroke="hsl(228.5, 77.2%, 51.5%)" stroke-width="1.5"></path><path d="M1578.03 -95.37L1603.09 107.27" stroke="hsl(228.5, 77.2%, 51.5%)" stroke-width="1.5"></path><path d="M1578.03 -95.37L1309.15 37.78" stroke="hsl(228.5, 77.2%, 51.5%)" stroke-width="1.5"></path><path d="M1578.03 -95.37L1266.19 -46.38" stroke="hsl(228.5, 77.2%, 51.5%)" stroke-width="1.5"></path><path d="M1603.09 107.27L1603.09 107.27" stroke="hsl(228.5, 77.2%, 51.5%)" stroke-width="1.5"></path><path d="M1603.09 107.27L1599.33 247.4" stroke="hsl(228.5, 77.2%, 51.5%)" stroke-width="1.5"></path><path d="M1603.09 107.27L1542.21 381.15" stroke="hsl(228.5, 77.2%, 51.5%)" stroke-width="1.5"></path><path d="M1599.33 247.4L1599.33 247.4" stroke="hsl(228.5, 77.2%, 51.5%)" stroke-width="1.5"></path><path d="M1599.33 247.4L1542.21 381.15" stroke="hsl(228.5, 77.2%, 51.5%)" stroke-width="1.5"></path><path d="M1542.21 381.15L1542.21 381.15" stroke="hsl(228.5, 77.2%, 51.5%)" stroke-width="1.5"></path><path d="M1542.21 381.15L1598.73 531.41" stroke="hsl(228.5, 77.2%, 51.5%)" stroke-width="1.5"></path><path d="M1598.73 531.41L1598.73 531.41" stroke="hsl(228.5, 77.2%, 51.5%)" stroke-width="1.5"></path><path d="M1598.73 531.41L1581.22 702.42" stroke="hsl(228.5, 77.2%, 51.5%)" stroke-width="1.5"></path><path d="M1598.73 531.41L1427.99 380.53" stroke="hsl(228.5, 77.2%, 51.5%)" stroke-width="1.5"></path><path d="M1598.73 531.41L1599.33 247.4" stroke="hsl(228.5, 77.2%, 51.5%)" stroke-width="1.5"></path><path d="M1581.22 702.42L1581.22 702.42" stroke="hsl(228.5, 77.2%, 51.5%)" stroke-width="1.5"></path><path d="M1581.22 702.42L1438.59 519.91" stroke="hsl(228.5, 77.2%, 51.5%)" stroke-width="1.5"></path><circle r="25" cx="109.96" cy="640.95" fill="url(&quot;#SvgjsRadialGradient1024&quot;)"></circle><circle r="25" cx="88.31" cy="824.14" fill="url(&quot;#SvgjsRadialGradient1024&quot;)"></circle><circle r="25" cx="40.49" cy="976.54" fill="url(&quot;#SvgjsRadialGradient1024&quot;)"></circle><circle r="25" cx="656.41" cy="693.34" fill="url(&quot;#SvgjsRadialGradient1024&quot;)"></circle><circle r="25" cx="825.35" cy="503.03" fill="url(&quot;#SvgjsRadialGradient1024&quot;)"></circle><circle r="25" cx="834.93" cy="671.29" fill="url(&quot;#SvgjsRadialGradient1024&quot;)"></circle><circle r="25" cx="838.69" cy="947.3" fill="url(&quot;#SvgjsRadialGradient1024&quot;)"></circle><circle r="25" cx="1003.98" cy="837.99" fill="url(&quot;#SvgjsRadialGradient1024&quot;)"></circle><circle r="25" cx="1147.6" cy="820.84" fill="url(&quot;#SvgjsRadialGradient1024&quot;)"></circle><circle r="25" cx="1266.19" cy="-46.38" fill="url(&quot;#SvgjsRadialGradient1024&quot;)"></circle><circle r="25" cx="1309.15" cy="37.78" fill="url(&quot;#SvgjsRadialGradient1024&quot;)"></circle><circle r="25" cx="1293.53" cy="193.65" fill="url(&quot;#SvgjsRadialGradient1024&quot;)"></circle><circle r="25" cx="1310.55" cy="347.31" fill="url(&quot;#SvgjsRadialGradient1024&quot;)"></circle><circle r="25" cx="1310.45" cy="990.27" fill="url(&quot;#SvgjsRadialGradient1024&quot;)"></circle><circle r="25" cx="1447.48" cy="-71.48" fill="url(&quot;#SvgjsRadialGradient1024&quot;)"></circle><circle r="25" cx="1438.59" cy="519.91" fill="url(&quot;#SvgjsRadialGradient1024&quot;)"></circle><circle r="25" cx="1428.24" cy="977.3" fill="url(&quot;#SvgjsRadialGradient1024&quot;)"></circle><circle r="25" cx="1560.71" cy="981.43" fill="url(&quot;#SvgjsRadialGradient1024&quot;)"></circle><circle r="5" cx="-40.31" cy="700.2" fill="#8b9ad9"></circle><circle r="5" cx="-46.35" cy="813.43" fill="#8b9ad9"></circle><circle r="5" cx="-100.76" cy="977.95" fill="#8b9ad9"></circle><circle r="5" cx="258.86" cy="706.73" fill="#8b9ad9"></circle><circle r="5" cx="255.81" cy="856.01" fill="#8b9ad9"></circle><circle r="5" cx="249.73" cy="1012.04" fill="#8b9ad9"></circle><circle r="5" cx="362.2" cy="675.76" fill="#8b9ad9"></circle><circle r="5" cx="406.14" cy="816.26" fill="#8b9ad9"></circle><circle r="5" cx="346.31" cy="975.58" fill="#8b9ad9"></circle><circle r="5" cx="560.02" cy="690.19" fill="#8b9ad9"></circle><circle r="5" cx="490.65" cy="805.43" fill="#8b9ad9"></circle><circle r="5" cx="501.05" cy="966.41" fill="#8b9ad9"></circle><circle r="5" cx="647.49" cy="526.36" fill="#8b9ad9"></circle><circle r="5" cx="666.68" cy="846.35" fill="#8b9ad9"></circle><circle r="5" cx="644.67" cy="1006.99" fill="#8b9ad9"></circle><circle r="5" cx="815.74" cy="813.91" fill="#8b9ad9"></circle><circle r="5" cx="946.45" cy="390.54" fill="#8b9ad9"></circle><circle r="5" cx="1007.28" cy="502.53" fill="#8b9ad9"></circle><circle r="5" cx="938.93" cy="685.35" fill="#8b9ad9"></circle><circle r="5" cx="994.55" cy="962.34" fill="#8b9ad9"></circle><circle r="5" cx="1140.01" cy="195.8" fill="#8b9ad9"></circle><circle r="5" cx="1149.89" cy="377.36" fill="#8b9ad9"></circle><circle r="5" cx="1089.29" cy="537.43" fill="#8b9ad9"></circle><circle r="5" cx="1147.86" cy="653.81" fill="#8b9ad9"></circle><circle r="5" cx="1138.49" cy="977.59" fill="#8b9ad9"></circle><circle r="5" cx="1250.7" cy="499.45" fill="#8b9ad9"></circle><circle r="5" cx="1248.54" cy="698.21" fill="#8b9ad9"></circle><circle r="5" cx="1242.18" cy="815.19" fill="#8b9ad9"></circle><circle r="5" cx="1454.47" cy="63.38" fill="#8b9ad9"></circle><circle r="5" cx="1455.38" cy="195.99" fill="#8b9ad9"></circle><circle r="5" cx="1427.99" cy="380.53" fill="#8b9ad9"></circle><circle r="5" cx="1436.17" cy="836.47" fill="#8b9ad9"></circle><circle r="5" cx="1578.03" cy="-95.37" fill="#8b9ad9"></circle><circle r="5" cx="1603.09" cy="107.27" fill="#8b9ad9"></circle><circle r="5" cx="1599.33" cy="247.4" fill="#8b9ad9"></circle><circle r="5" cx="1542.21" cy="381.15" fill="#8b9ad9"></circle><circle r="5" cx="1598.73" cy="531.41" fill="#8b9ad9"></circle><circle r="5" cx="1581.22" cy="702.42" fill="#8b9ad9"></circle></g><defs><mask id="SvgjsMask1023"><rect width="1440" height="760" fill="#ffffff"></rect></mask><radialGradient id="SvgjsRadialGradient1024"><stop stop-color="#ffffff" offset="0.1"></stop><stop stop-color="#1735b3" offset="0.2"></stop><stop stop-color="rgba(23, 53, 179, 0)" offset="1"></stop></radialGradient></defs></svg>